<svg width="43" height="42" viewBox="0 0 43 42" fill="none" xmlns="http://www.w3.org/2000/svg">
<path d="M40.1433 21.1315C40.1433 19.6402 40.0171 18.5519 39.7441 17.4234H21.9907V24.1543H32.4115C32.2015 25.8271 31.067 28.3462 28.5457 30.0389L28.5104 30.2643L34.1237 34.4354L34.5126 34.4727C38.0842 31.3086 40.1433 26.6533 40.1433 21.1315Z" fill="#4285F4"/>
<path d="M21.9895 38.8662C27.0948 38.8662 31.3808 37.2539 34.5113 34.4728L28.5445 30.0391C26.9478 31.1072 24.8047 31.8528 21.9895 31.8528C16.9891 31.8528 12.7452 28.6889 11.2323 24.3157L11.0106 24.3338L5.1738 28.6667L5.09747 28.8702C8.2069 34.7952 14.5939 38.8662 21.9895 38.8662Z" fill="#34A853"/>
<path d="M11.2334 24.3158C10.8343 23.1873 10.6032 21.978 10.6032 20.7286C10.6032 19.479 10.8343 18.2699 11.2124 17.1414L11.2019 16.901L5.29193 12.4986L5.09857 12.5868C3.81702 15.0455 3.08167 17.8064 3.08167 20.7286C3.08167 23.6508 3.81702 26.4116 5.09857 28.8703L11.2334 24.3158Z" fill="#FBBC05"/>
<path d="M21.9896 9.60422C25.5402 9.60422 27.9353 11.0754 29.301 12.3048L34.6375 7.30685C31.3601 4.38469 27.0949 2.59108 21.9896 2.59108C14.594 2.59108 8.20692 6.66192 5.09747 12.5868L11.2114 17.1414C12.7452 12.7683 16.9892 9.60422 21.9896 9.60422Z" fill="#EB4335"/>
</svg>
